<svg width="231" height="50" viewBox="0 0 231 50" fill="none" xmlns="http://www.w3.org/2000/svg">
    <g clip-path="url(#ft6jcgtoqa)">
        <path d="M20.459 48.016a3.99 3.99 0 0 1 1.677-5.577 4.008 4.008 0 0 1 5.224 1.57 3.99 3.99 0 0 1-1.677 5.576 4.004 4.004 0 0 1-5.223-1.571l-.001.002z" fill="url(#wacrs6bbnb)"/>
        <path d="M34.72 4.192C24.64-3.138 10.582-.575 3.703 9.682A21.733 21.733 0 0 0 .054 23.365l.011.12c.241 2.243 3.144 3.006 4.509 1.209L16.2 9.393c1.325-1.743 3.25-1.765 4.772-.61 1.118.85 1.916 1.935 1.433 3.443-.794 2.484-.168 5.136 1.788 6.622 1.956 1.486 4.68 1.376 6.862-.054 1.325-.869 2.541-.425 3.66.425 1.52 1.155 2.058 3.047.734 4.79l-4.873 6.412-1.883 2.808c-2.803 4.177 2.393 9.05 6.397 6.006a21.792 21.792 0 0 0 5.036-5.41c6.347-9.672 3.954-22.832-5.405-29.635v.002z" fill="url(#61802hsidc)"/>
        <path d="M60.715 5.243h5.38v3.773h-5.597a6.09 6.09 0 0 0-1.128.107 6.6 6.6 0 0 0-1.127.325c-.174.087-.341.18-.499.28a2.67 2.67 0 0 0-.455.367 6.575 6.575 0 0 0-.346.474 4.543 4.543 0 0 0-.303.519c-.174.259-.303.54-.39.843-.087.302-.145.61-.174.928v5.22h10.02v3.772h-10.02v12.617h-3.903V14.002l.395-3.123c.147-.433.323-.859.526-1.28.205-.418.439-.815.702-1.192.263-.317.54-.6.832-.846.292-.245.598-.47.92-.672a7.46 7.46 0 0 1 1.308-.738c.462-.201.924-.36 1.389-.477a7.566 7.566 0 0 1 1.647-.348c.145-.028.283-.043.412-.043h.411v-.044.004zM68.523 5.156h3.947l-.043 21.16c.058.434.174.854.346 1.259.174.405.375.78.607 1.127.23.319.492.607.782.868.288.26.621.477.997.65.404.203.815.376 1.236.52.419.146.86.247 1.323.303.434.03.86.015 1.28-.043a5.355 5.355 0 0 0 1.193-.303 6.17 6.17 0 0 0 1.15-.455c.36-.188.687-.426.975-.716.317-.346.585-.73.803-1.149a6.31 6.31 0 0 0 .499-1.28c.087-.345.152-.7.195-1.061.044-.36.066-.73.066-1.106V5.156h3.903v20.51a11.268 11.268 0 0 1-.89 3.425 10.9 10.9 0 0 1-1.931 2.992 7.87 7.87 0 0 1-1.28 1.106 8.989 8.989 0 0 1-1.496.846 5.506 5.506 0 0 1-1.192.39 9.386 9.386 0 0 1-1.237.174 4.8 4.8 0 0 1-.411.065 3.74 3.74 0 0 1-.412.022 2.093 2.093 0 0 1-.412.044h-.411c-.261 0-.52-.008-.781-.022a4.822 4.822 0 0 1-.782-.109 12.171 12.171 0 0 1-1.452-.261 7.297 7.297 0 0 1-1.367-.477 8.956 8.956 0 0 1-1.454-.91 7.518 7.518 0 0 1-1.236-1.214 7.177 7.177 0 0 1-.932-1.149 16.467 16.467 0 0 1-.76-1.28 12.46 12.46 0 0 1-.52-1.538 10.149 10.149 0 0 1-.303-1.625V5.156zM95.373 5.113c.114 0 .239-.008.367-.022.131-.015.253-.022.369-.022.2 0 .397.022.585.065.189.044.383.095.586.153.288.116.549.268.781.454.23.189.448.397.65.63l11.279 22.46h.087V5.327h3.859l-.087 26.754a3.466 3.466 0 0 1-.217.931 3.337 3.337 0 0 1-.475.846 2.138 2.138 0 0 1-.562.477 2.602 2.602 0 0 1-.649.261 2.302 2.302 0 0 1-.475.13 3.143 3.143 0 0 1-.519.044h-.261a.81.81 0 0 1-.259-.043 7.168 7.168 0 0 1-.779-.13 5.411 5.411 0 0 1-.736-.218 2.757 2.757 0 0 1-.628-.542 5.2 5.2 0 0 1-.496-.673L96.759 11.008h-.174v23.459h-3.903V8.625c.058-.52.189-1.033.39-1.539.201-.505.491-.946.868-1.323.23-.174.463-.31.695-.411.23-.102.476-.167.737-.196v-.043zM116.797 5.156h18.521v3.902h-7.201v25.409h-4.077V9.058h-7.245V5.156h.002zM138.572 5.328h4.207v29.139h-4.207V5.328zM165.636 5.243v3.859a4.99 4.99 0 0 1-.455-.022 5.04 5.04 0 0 0-.455-.022h-.953c-.463 0-.927.015-1.389.044-.462.029-.926.087-1.389.174a7.965 7.965 0 0 0-2.103.367c-.679.218-1.352.484-2.017.803a8.168 8.168 0 0 0-1.496.868 11.19 11.19 0 0 0-1.323 1.128 9.588 9.588 0 0 0-1.953 2.818 11.58 11.58 0 0 0-.651 1.712 9.472 9.472 0 0 0-.346 1.757c-.058.29-.102.592-.131.91-.029.318-.043.636-.043.953 0 .29.022.578.065.868.044.29.08.592.109.91.114.607.288 1.192.52 1.756.231.563.521 1.105.869 1.625a15.703 15.703 0 0 0 2.255 2.45 12.712 12.712 0 0 0 2.732 1.844 19.03 19.03 0 0 0 5.681.868 17.973 17.973 0 0 0 2.473-.174v3.73h-2.993l-2.949-.044a12.407 12.407 0 0 1-2.256-.39 13.625 13.625 0 0 1-2.168-.78 12.21 12.21 0 0 1-1.757-.932 10.837 10.837 0 0 1-1.582-1.236c-.52-.404-.997-.852-1.432-1.345a15.878 15.878 0 0 1-1.215-1.56 15.731 15.731 0 0 1-1.193-2.364 21.97 21.97 0 0 1-.846-2.537 33.465 33.465 0 0 1-.153-2.666c-.014-.88.007-1.756.066-2.624a13.296 13.296 0 0 1 1.473-4.422 30.94 30.94 0 0 1 1.28-2.015 15.16 15.16 0 0 1 1.496-1.844 9.06 9.06 0 0 1 1.452-1.323 11.66 11.66 0 0 1 1.67-1.018 17.635 17.635 0 0 1 2.645-1.149 19.71 19.71 0 0 1 2.775-.716 19.17 19.17 0 0 1 3.644-.348c.346 0 .694.007 1.041.022.346.014.68.05.997.109v-.044h.005zM169.583 5.328h3.903v12.143h3.414c.402.029.792.014 1.166-.044a7.961 7.961 0 0 0 1.124-.26 3.612 3.612 0 0 0 1.08-.608c.317-.26.605-.564.865-.91a18.12 18.12 0 0 0 1.814-2.232 16.068 16.068 0 0 0 1.427-2.538 21.57 21.57 0 0 0 1.039-2.687 15.93 15.93 0 0 0 .607-2.818l3.99-.044a21.901 21.901 0 0 1-.737 3.057c-.319.997-.695 1.96-1.128 2.884a21.998 21.998 0 0 1-1.496 2.688 27.831 27.831 0 0 1-1.843 2.515c-.236.375-.53.73-.881 1.062a5.807 5.807 0 0 1-1.144.846c.409.058.812.153 1.209.283.395.13.769.297 1.12.498.343.203.671.426.986.673.314.246.6.527.858.846.228.29.45.6.663.932.214.333.394.687.537 1.062.143.377.263.766.364 1.17.1.407.165.81.194 1.215v9.41h-3.903v-8.413a6.548 6.548 0 0 0-.496-1.974 6.974 6.974 0 0 0-1.103-1.8 8.115 8.115 0 0 0-1.468-.803 4.842 4.842 0 0 0-1.641-.368l-6.611-.043v13.398h-3.904V5.328h-.005zM206.017 5.243h4.294v3.858a29.04 29.04 0 0 0-2.298-.087c-.463 0-.927.022-1.389.066a45.5 45.5 0 0 0-1.389.152c-.665.116-1.323.283-1.974.498a10.94 10.94 0 0 0-1.844.803c-.491.261-.96.55-1.41.868-.448.32-.876.68-1.28 1.084a9.68 9.68 0 0 0-1.626 2.407 9.83 9.83 0 0 0-.847 2.796l14.097-.043v3.815h-14.097a8.726 8.726 0 0 0 1.953 5.29c.404.49.837.953 1.301 1.388.463.433.969.825 1.518 1.17.953.492 1.952.862 2.993 1.106 1.04.247 2.096.368 3.167.368l3.167-.043v3.73h-3.167l-3.08-.087a12.938 12.938 0 0 1-2.212-.542 14.678 14.678 0 0 1-2.081-.888 14.72 14.72 0 0 1-1.8-1.062 16.671 16.671 0 0 1-1.626-1.28 21.181 21.181 0 0 1-1.561-1.843 14.498 14.498 0 0 1-1.302-2.059 14.108 14.108 0 0 1-.738-1.756 12.59 12.59 0 0 1-.477-1.843 34.16 34.16 0 0 1-.217-1.756 18.022 18.022 0 0 1-.087-1.756c0-.463.022-.932.065-1.41.044-.479.094-.946.152-1.41.231-.753.499-1.488.804-2.211.302-.722.629-1.445.975-2.168.462-.752.997-1.453 1.604-2.102a13.683 13.683 0 0 1 1.996-1.756 37.988 37.988 0 0 1 3.644-2.08 16.103 16.103 0 0 1 2.342-.782 14.275 14.275 0 0 1 2.43-.39v-.045zM212.48 5.156H231v3.902h-7.201v25.409h-4.077V9.058h-7.244V5.156h.002z" fill="#fff"/>
    </g>
    <defs>
        <linearGradient id="wacrs6bbnb" x1="46.58" y1="-4.614" x2="26.29" y2="40.795" gradientUnits="userSpaceOnUse">
            <stop stop-color="#D371AC"/>
            <stop offset=".5" stop-color="#C6158B"/>
            <stop offset="1" stop-color="#9C248D"/>
        </linearGradient>
        <linearGradient id="61802hsidc" x1="34.512" y1="-6.403" x2="19.644" y2="26.876" gradientUnits="userSpaceOnUse">
            <stop stop-color="#D371AC"/>
            <stop offset=".5" stop-color="#C6158B"/>
            <stop offset="1" stop-color="#9C248D"/>
        </linearGradient>
        <clipPath id="ft6jcgtoqa">
            <path fill="#fff" d="M0 0h231v50H0z"/>
        </clipPath>
    </defs>
</svg>
